<svg xmlns="http://www.w3.org/2000/svg" width="512" height="512" viewBox="0 0 512 512" version="1.1">
	<path d="M 135.073 254.757 C 105.688 338.765, 81.450 408.067, 81.211 408.761 C 80.866 409.765, 89.283 409.969, 122.544 409.761 L 164.311 409.500 173.296 383.240 L 182.281 356.980 228.307 357.240 L 274.333 357.500 283 383.500 L 291.667 409.500 383.584 409.500 C 473.702 409.500, 475.566 409.461, 478.895 407.500 C 480.763 406.400, 483.238 404.230, 484.395 402.679 C 486.396 399.997, 486.515 398.507, 486.795 372.425 C 487.069 346.977, 486.949 344.672, 485.129 340.560 C 483.692 337.310, 482.089 335.576, 479.124 334.063 C 475.176 332.049, 473.700 332, 417.040 332 L 359 332 359 226.049 C 359 154.280, 358.653 118.482, 357.925 115.087 C 356.648 109.131, 352.235 104.679, 345.924 102.979 C 343.287 102.269, 333.008 101.986, 317.160 102.187 C 294.625 102.473, 292.207 102.672, 289.105 104.500 C 282.429 108.432, 281.556 110.675, 281 125.320 L 280.500 138.500 278.401 133 C 277.246 129.975, 274.321 121.764, 271.901 114.754 L 267.500 102.008 228 102.011 L 188.500 102.013 135.073 254.757 M 214.672 245.387 C 207.703 268.150, 202 287.275, 202 287.887 C 202 289.166, 255.937 289.528, 256.089 288.250 C 256.244 286.951, 228.529 204.101, 227.922 204.049 C 227.605 204.022, 221.642 222.624, 214.672 245.387 M 1.762 511.707 C 3.006 511.946, 4.806 511.937, 5.762 511.687 C 6.718 511.437, 5.700 511.241, 3.500 511.252 C 1.300 511.263, 0.518 511.468, 1.762 511.707 M 12.750 511.737 C 15.638 511.939, 20.363 511.939, 23.250 511.737 C 26.138 511.535, 23.775 511.370, 18 511.370 C 12.225 511.370, 9.863 511.535, 12.750 511.737 " stroke="none" fill="#fff" fill-rule="evenodd"/>
</svg>