<svg version="1.0" 
    xmlns="http://www.w3.org/2000/svg" width="218px" height="159px" viewBox="0 0 2180 1590" preserveAspectRatio="xMidYMid meet">
    <g id="layer101" fill="#fff" stroke="none">
        <path class="path-osu" d="M464 1071 c-71 -43 -98 -109 -93 -223 3 -60 9 -83 31 -115 60 -91 211 -109 299 -36 47 40 69 96 69 178 0 104 -40 177 -113 204 -48 18 -158 14 -193 -8z m151 -95 c14 -14 26 -41 30 -68 18 -118 -61 -201 -126 -132 -21 22 -24 35 -24 101 0 70 2 76 28 99 35 30 61 30 92 0z" />
        <path class="path-osu" d="M862 1083 c-31 -6 -37 -26 -23 -73 11 -37 13 -39 37 -30 35 14 118 12 132 -2 28 -28 13 -46 -55 -69 -92 -30 -113 -53 -113 -122 0 -63 24 -101 76 -123 40 -17 124 -18 178 -3 37 10 38 12 33 46 -9 52 -18 58 -71 44 -31 -7 -53 -8 -71 -1 -45 17 -28 42 45 67 86 29 110 57 110 128 0 96 -65 146 -187 144 -37 -1 -78 -4 -91 -6z" />
        <path class="path-osu" d="M1313 1079 c-39 -11 -79 -57 -93 -107 -5 -20 -10 -98 -10 -173 l0 -137 34 -6 c19 -4 46 -4 59 -1 24 6 24 8 29 148 5 138 6 141 33 164 19 17 37 23 59 21 l31 -3 3 -161 2 -162 35 -6 c18 -4 45 -4 59 0 l26 6 0 203 0 203 -44 11 c-53 13 -178 13 -223 0z" />
        <path class="path-osu" d="M1680 1026 c0 -70 5 -76 65 -76 60 0 65 6 65 76 l0 64 -65 0 -65 0 0 -64z" />
        <path class="path-osu" d="M1709 904 c-25 -8 -29 -34 -29 -226 l0 -178 66 0 67 0 -5 195 c-2 107 -7 197 -10 200 -8 8 -70 14 -89 9z" />
    </g>

</svg>