<?xml version="1.0" standalone="no"?>
<!DOCTYPE svg PUBLIC "-//W3C//DTD SVG 20010904//EN"
 "http://www.w3.org/TR/2001/REC-SVG-20010904/DTD/svg10.dtd">
<svg version="1.0" xmlns="http://www.w3.org/2000/svg"
 width="1024.000000pt" height="1024.000000pt" viewBox="0 0 1024.000000 1024.000000"
 preserveAspectRatio="xMidYMid meet">
<metadata>
Created by potrace 1.15, written by Peter Selinger 2001-2017
</metadata>
<g transform="translate(0.000000,1024.000000) scale(0.100000,-0.100000)"
fill="#000000" stroke="none">
<path d="M4125 8175 c-352 -49 -504 -179 -613 -525 -32 -99 -1002 -4934 -1023
-5095 -17 -132 -7 -264 26 -330 60 -124 204 -192 455 -216 269 -26 584 24 728
115 98 62 195 199 244 344 17 51 102 452 204 957 95 479 176 880 179 893 l5
22 853 0 c477 0 914 5 994 10 249 18 352 58 467 181 109 117 189 301 243 558
23 108 27 151 27 301 1 143 -2 184 -17 226 -24 70 -73 124 -143 159 -131 64
-55 59 -1136 63 -544 1 -988 4 -988 5 0 2 38 194 85 427 47 233 85 425 85 427
0 1 649 4 1443 5 l1442 3 79 23 c44 12 117 40 161 62 96 46 170 119 223 217
99 186 196 642 177 833 -17 178 -85 261 -265 323 l-65 22 -1890 2 c-1482 1
-1909 -2 -1980 -12z"/>
</g>
</svg>
