<?xml version="1.0" standalone="no"?>
<!DOCTYPE svg PUBLIC "-//W3C//DTD SVG 20010904//EN"
 "http://www.w3.org/TR/2001/REC-SVG-20010904/DTD/svg10.dtd">
<svg version="1.0" xmlns="http://www.w3.org/2000/svg"
 width="168.000000pt" height="168.000000pt" viewBox="0 0 168.000000 168.000000"
 preserveAspectRatio="xMidYMid meet">
<metadata>
Created by potrace 1.15, written by Peter Selinger 2001-2017
</metadata>
<g transform="translate(0.000000,168.000000) scale(0.100000,-0.100000)"
fill="#000000" stroke="none">
<path d="M744 1420 c-292 -53 -497 -294 -498 -585 0 -109 15 -177 60 -271 60
-123 179 -235 303 -284 71 -28 81 -21 81 55 l0 62 -47 -4 c-70 -6 -130 27
-164 91 -14 27 -37 59 -52 70 -33 26 -35 46 -4 46 31 0 74 -31 102 -73 28 -41
78 -61 127 -52 27 5 36 14 50 46 12 29 14 41 5 43 -172 46 -227 99 -246 237
-11 85 13 191 48 214 6 3 6 18 0 37 -4 17 -7 41 -4 52 15 77 14 76 46 76 18 0
57 -13 88 -28 42 -21 64 -26 86 -21 39 9 191 9 230 0 23 -6 44 0 87 21 32 15
71 28 88 28 30 0 30 0 45 -72 1 -10 -1 -33 -5 -53 -4 -20 -4 -38 1 -41 35 -22
59 -128 48 -213 -10 -71 -29 -113 -72 -159 -32 -33 -119 -72 -162 -72 -29 0
-30 -5 -10 -40 10 -18 14 -59 15 -141 0 -136 3 -139 81 -109 124 49 243 161
303 284 45 94 60 162 60 271 -1 317 -242 570 -561 589 -43 3 -101 1 -129 -4z"/>
</g>
</svg>
