<?xml version="1.0" standalone="no"?>
<!DOCTYPE svg PUBLIC "-//W3C//DTD SVG 20010904//EN"
 "http://www.w3.org/TR/2001/REC-SVG-20010904/DTD/svg10.dtd">
<svg version="1.0" xmlns="http://www.w3.org/2000/svg"
 width="640.000000pt" height="427.000000pt" viewBox="0 0 640.000000 427.000000"
 preserveAspectRatio="xMidYMid meet">
<metadata>
Created by potrace 1.15, written by Peter Selinger 2001-2017
</metadata>
<g transform="translate(0.000000,427.000000) scale(0.100000,-0.100000)"
fill="#000000" stroke="none">
<path d="M3725 3546 c-225 -52 -405 -196 -504 -406 -49 -102 -64 -193 -59
-336 6 -144 22 -132 -142 -110 -236 32 -429 90 -635 191 -248 122 -435 263
-631 478 l-61 67 -31 -68 c-103 -225 -77 -495 68 -707 26 -38 105 -119 160
-164 l25 -21 -50 6 c-63 7 -178 40 -227 65 -20 10 -40 19 -44 19 -11 0 8 -143
28 -210 44 -142 138 -280 250 -365 69 -53 191 -113 244 -122 19 -3 34 -10 34
-14 0 -5 -3 -9 -7 -9 -5 0 -44 -4 -88 -9 -44 -5 -108 -6 -143 -2 -74 9 -75 6
-34 -77 46 -93 77 -136 145 -203 109 -109 244 -176 403 -202 41 -6 74 -14 74
-17 0 -8 -167 -113 -227 -144 -210 -105 -504 -167 -728 -152 l-90 5 40 -25
c71 -45 298 -151 390 -182 109 -37 217 -64 350 -88 152 -28 507 -26 675 3 306
53 572 162 813 330 123 87 307 257 397 370 133 165 262 391 335 586 86 231
124 422 132 657 l6 165 84 70 c103 85 275 277 261 291 -3 2 -25 -5 -49 -15
-54 -24 -171 -57 -270 -75 l-74 -14 40 30 c94 74 173 166 219 259 26 51 45 94
43 96 -2 1 -51 -19 -108 -46 -107 -50 -241 -97 -307 -106 -33 -5 -43 -1 -97
45 -69 58 -172 115 -259 142 -80 26 -268 33 -351 14z"/>
</g>
</svg>
